<svg xmlns="http://www.w3.org/2000/svg">
    <symbol id="search" viewBox="0 0 34 35" fill="currentColor">
        <path d="M23.4286 14.9286C23.4286 19.8906 19.3906 23.9286 14.4286 23.9286C9.46651 23.9286 5.42856 19.8906 5.42856 14.9286C5.42856 9.96651 9.46651 5.92856 14.4286 5.92856C19.3906 5.92856 23.4286 9.96651 23.4286 14.9286ZM33.7143 31.6429C33.7143 30.9598 33.433 30.2969 32.971 29.8348L26.0803 22.9442C27.7076 20.5937 28.5714 17.7812 28.5714 14.9286C28.5714 7.11383 22.2433 0.785706 14.4286 0.785706C6.61383 0.785706 0.285706 7.11383 0.285706 14.9286C0.285706 22.7433 6.61383 29.0714 14.4286 29.0714C17.2812 29.0714 20.0937 28.2076 22.4442 26.5803L29.3348 33.4509C29.7969 33.933 30.4598 34.2143 31.1429 34.2143C32.5491 34.2143 33.7143 33.0491 33.7143 31.6429Z" fill="currentColor" />
    </symbol>
    <symbol id="percent" viewBox="0 0 32 31" fill="currentColor">
        <path d="M26.2857 23.2143C26.2857 24.6205 25.1205 25.7857 23.7143 25.7857C22.308 25.7857 21.1429 24.6205 21.1429 23.2143C21.1429 21.808 22.308 20.6428 23.7143 20.6428C25.1205 20.6428 26.2857 21.808 26.2857 23.2143ZM10.8571 7.7857C10.8571 9.19195 9.69196 10.3571 8.28571 10.3571C6.87946 10.3571 5.71428 9.19195 5.71428 7.7857C5.71428 6.37945 6.87946 5.21427 8.28571 5.21427C9.69196 5.21427 10.8571 6.37945 10.8571 7.7857ZM31.4286 23.2143C31.4286 18.9553 27.9732 15.5 23.7143 15.5C19.4554 15.5 16 18.9553 16 23.2143C16 27.4732 19.4554 30.9286 23.7143 30.9286C27.9732 30.9286 31.4286 27.4732 31.4286 23.2143ZM29.5 1.35713C29.5 0.654 28.9174 0.0714111 28.2143 0.0714111H25C24.5982 0.0714111 24.2165 0.272304 23.9754 0.593734L2.76116 28.8794C2.60044 29.1004 2.5 29.3616 2.5 29.6428C2.5 30.346 3.08259 30.9286 3.78571 30.9286H7C7.40178 30.9286 7.78348 30.7277 8.02455 30.4062L29.2388 2.12052C29.3996 1.89954 29.5 1.63838 29.5 1.35713ZM16 7.7857C16 3.52677 12.5446 0.0714111 8.28571 0.0714111C4.02678 0.0714111 0.571426 3.52677 0.571426 7.7857C0.571426 12.0446 4.02678 15.5 8.28571 15.5C12.5446 15.5 16 12.0446 16 7.7857Z" fill="currentColor" />
    </symbol>
    <symbol id="document" viewBox="0 0 39 42" fill="currentColor">
        <path d="M15.4932 23.1224V21.8367C15.4932 21.4751 15.7745 21.1939 16.1361 21.1939H30.2789C30.6405 21.1939 30.9218 21.4751 30.9218 21.8367V23.1224C30.9218 23.484 30.6405 23.7653 30.2789 23.7653H16.1361C15.7745 23.7653 15.4932 23.484 15.4932 23.1224Z" fill="currentColor" />
        <path d="M16.1361 26.3367H30.2789C30.6405 26.3367 30.9218 26.618 30.9218 26.9796V28.2653C30.9218 28.6269 30.6405 28.9081 30.2789 28.9081H16.1361C15.7745 28.9081 15.4932 28.6269 15.4932 28.2653V26.9796C15.4932 26.618 15.7745 26.3367 16.1361 26.3367Z" fill="currentColor" />
        <path d="M16.1361 31.4796H30.2789C30.6405 31.4796 30.9218 31.7608 30.9218 32.1224V33.4081C30.9218 33.7698 30.6405 34.051 30.2789 34.051H16.1361C15.7745 34.051 15.4932 33.7698 15.4932 33.4081V32.1224C15.4932 31.7608 15.7745 31.4796 16.1361 31.4796Z" fill="currentColor" />
        <path fill-rule="evenodd" clip-rule="evenodd" d="M7.77892 15.0648C3.68373 15.0648 0.363922 11.745 0.363922 7.6498C0.363922 3.55461 3.68373 0.234802 7.77892 0.234802C11.2229 0.234802 14.1185 2.58277 14.9523 5.76529H27.7075C28.7722 5.76529 30.2588 6.38806 31.0021 7.13136L37.27 13.3992C38.0133 14.1425 38.6361 15.6291 38.6361 16.6939V39.8367C38.6361 40.9015 37.7722 41.7653 36.7075 41.7653H9.70749C8.64276 41.7653 7.77892 40.9015 7.77892 39.8367L7.77892 15.0648ZM10.3504 14.6068C12.9729 13.6371 14.897 11.227 15.1625 8.33672H25.7789V16.6939C25.7789 17.7586 26.6428 18.6224 27.7075 18.6224H36.0646V39.1939H10.3504V14.6068ZM29.174 8.9394C29.0334 8.79877 28.6919 8.61797 28.3504 8.49743V16.051H35.9039C35.7834 15.7095 35.6026 15.368 35.462 15.2273L29.174 8.9394ZM8.77892 8.64984H12.7789V6.64984H8.77892V2.64984H6.77892V6.64984H2.77892V8.64984H6.77892V12.6498H8.77892V8.64984Z" fill="currentColor" />
    </symbol>
    <symbol id="mail" viewBox="0 0 37 30" fill="currentColor">
        <path d="M33.9286 25.8571C33.9286 26.1987 33.6272 26.5 33.2857 26.5H3.71429C3.37277 26.5 3.07143 26.1987 3.07143 25.8571V10.4286C3.4933 10.9107 3.95536 11.3527 4.45759 11.7545C7.33036 13.9643 10.2232 16.2143 13.0156 18.5446C14.5223 19.8103 16.3906 21.3571 18.4799 21.3571H18.5H18.5201C20.6094 21.3571 22.4777 19.8103 23.9844 18.5446C26.7768 16.2143 29.6696 13.9643 32.5424 11.7545C33.0446 11.3527 33.5067 10.9107 33.9286 10.4286V25.8571ZM33.9286 4.74329C33.9286 6.45088 32.2813 8.68079 30.9754 9.70535C28.2835 11.8147 25.5915 13.9442 22.9196 16.0737C21.8549 16.9375 19.9263 18.7857 18.5201 18.7857H18.5H18.4799C17.0737 18.7857 15.1451 16.9375 14.0804 16.0737C11.4085 13.9442 8.71652 11.8147 6.02455 9.70535C4.21652 8.27901 3.07143 6.29017 3.07143 3.99999C3.07143 3.65847 3.37277 3.35713 3.71429 3.35713H33.2857C34.0491 3.35713 33.9286 4.24106 33.9286 4.74329ZM36.5 3.99999C36.5 2.23213 35.0536 0.785706 33.2857 0.785706H3.71429C1.94643 0.785706 0.5 2.23213 0.5 3.99999V25.8571C0.5 27.625 1.94643 29.0714 3.71429 29.0714H33.2857C35.0536 29.0714 36.5 27.625 36.5 25.8571V3.99999Z" fill="currentColor" />
    </symbol>
    <symbol id="money" viewBox="0 0 39 27" fill="currentColor">
        <path d="M15.4286 18.7857V16.8571H18V11.0714H17.9598C17.6384 11.5737 17.3371 11.7946 16.8549 12.2165L15.308 10.6094L18.2812 7.85713H20.5714V16.8571H23.1429V18.7857H15.4286ZM25.7143 13.6428C25.7143 9.9866 23.5045 5.28571 19.2857 5.28571C15.067 5.28571 12.8571 9.9866 12.8571 13.6428C12.8571 17.2991 15.067 22 19.2857 22C23.5045 22 25.7143 17.2991 25.7143 13.6428ZM36 18.7857C33.1674 18.7857 30.8571 21.096 30.8571 23.9286H7.71429C7.71429 21.096 5.40402 18.7857 2.57143 18.7857V8.49999C5.40402 8.49999 7.71429 6.18972 7.71429 3.35713H30.8571C30.8571 6.18972 33.1674 8.49999 36 8.49999V18.7857ZM38.5714 2.07142C38.5714 1.36829 37.9888 0.785706 37.2857 0.785706H1.28571C0.582589 0.785706 0 1.36829 0 2.07142V25.2143C0 25.9174 0.582589 26.5 1.28571 26.5H37.2857C37.9888 26.5 38.5714 25.9174 38.5714 25.2143V2.07142Z" fill="currentColor" />
    </symbol>
    <symbol id="dot" viewBox="0 0 6 6" fill="none">
        <circle cx="3" cy="3" r="3" fill="#C4C4C4" />
    </symbol>
    <symbol id="divider" viewBox="0 0 1 18" fill="currentColor">
        <path fill-rule="evenodd" clip-rule="evenodd" d="M0 0H1V18H0V0Z" fill="#C3C3C3" />
    </symbol>
    <symbol id="arrow" width="9" height="6" viewBox="0 0 9 6" fill="none">
        <path d="M8.93375 1.51079C8.93375 1.43936 8.89803 1.359 8.84446 1.30543L8.39803 0.859C8.34446 0.805429 8.2641 0.769714 8.19268 0.769714C8.12125 0.769714 8.04089 0.805429 7.98732 0.859L4.47839 4.36793L0.969462 0.859C0.91589 0.805429 0.835533 0.769714 0.764105 0.769714C0.683748 0.769714 0.612319 0.805429 0.558748 0.859L0.112319 1.30543C0.0587475 1.359 0.0230331 1.43936 0.0230331 1.51079C0.0230331 1.58221 0.0587475 1.66257 0.112319 1.71614L4.27303 5.87686C4.3266 5.93043 4.40696 5.96614 4.47839 5.96614C4.54982 5.96614 4.63018 5.93043 4.68375 5.87686L8.84446 1.71614C8.89803 1.66257 8.93375 1.58221 8.93375 1.51079Z" fill="black" />
    </symbol>
    <symbol id="qiwi" viewBox="0 0 21 20" fill="none">
        <path d="M16.9118 13.4559C16.9719 13.8435 16.845 14.0076 16.7167 14.0076C16.5885 14.0076 16.4028 13.85 16.1957 13.5373C15.9887 13.2245 15.9179 12.8769 16.0181 12.6986C16.0558 12.6368 16.1167 12.5915 16.1881 12.572C16.2595 12.5525 16.3359 12.5604 16.4015 12.5939C16.7421 12.718 16.8757 13.2233 16.9118 13.4559ZM15.0241 14.3061C15.4343 14.6408 15.5585 15.0389 15.3421 15.3193C15.2762 15.3977 15.1922 15.46 15.0968 15.5013C15.0014 15.5426 14.8974 15.5617 14.793 15.557C14.5642 15.5574 14.3425 15.4801 14.1665 15.3386C13.7951 15.0246 13.6856 14.5142 13.9287 14.2247C13.9824 14.1653 14.0494 14.1186 14.1247 14.0881C14.2 14.0577 14.2814 14.0443 14.3629 14.049C14.6077 14.0569 14.8418 14.1479 15.0241 14.3061ZM14.3402 17.5367C16.1022 17.5367 18.0139 18.1208 20.1313 19.9351C20.3424 20.1161 20.6243 19.8912 20.4399 19.6651C18.3599 17.1258 16.4322 16.6412 14.5178 16.2329C12.172 15.7315 10.9643 14.4535 10.1187 13.0514C9.95167 12.7723 9.87552 12.8214 9.86083 13.1806C9.84679 13.7131 9.88841 14.2456 9.98507 14.7701C9.89022 14.7701 9.79403 14.7701 9.69918 14.7701C8.49698 14.7701 7.32179 14.4252 6.3222 13.7792C5.3226 13.1331 4.54352 12.2148 4.08346 11.1404C3.6234 10.0661 3.50302 8.88385 3.73756 7.7433C3.9721 6.60275 4.55101 5.55509 5.40109 4.7328C6.25117 3.91051 7.33424 3.35053 8.51334 3.12366C9.69244 2.89679 10.9146 3.01322 12.0253 3.45824C13.136 3.90326 14.0853 4.65688 14.7532 5.62379C15.4211 6.5907 15.7776 7.72748 15.7776 8.89037C15.7782 9.11877 15.7653 9.347 15.7389 9.57397C15.0985 9.49597 14.4514 9.48427 13.8085 9.53908C13.5773 9.55846 13.6107 9.6683 13.7844 9.69285C15.7883 10.043 17.175 11.2435 17.4902 13.4339C17.4914 13.445 17.4961 13.4555 17.5037 13.4638C17.5114 13.4721 17.5215 13.478 17.5328 13.4804C17.544 13.4828 17.5558 13.4818 17.5664 13.4774C17.577 13.473 17.5859 13.4654 17.5918 13.4559C18.6342 11.7703 19.0706 9.79838 18.8329 7.84774C18.5952 5.89709 17.6968 4.07738 16.2778 2.67245C14.8588 1.26752 12.999 0.356356 10.9885 0.0810911C8.97799 -0.194174 6.92984 0.181935 5.1635 1.15075C3.39717 2.11957 2.01197 3.62662 1.22396 5.43683C0.435958 7.24704 0.289461 9.25863 0.807322 11.1578C1.32518 13.057 2.47828 14.737 4.08676 15.9358C5.69524 17.1346 7.66865 17.7848 9.69918 17.7849C11.0418 17.7887 12.379 17.5355 14.3402 17.5355V17.5367Z" fill="#3E9CDC" />
    </symbol>
    <symbol id="yandex" viewBox="0 0 15 18" fill="none">
        <path fill-rule="evenodd" clip-rule="evenodd" d="M0.779835 8.9307C0.779835 7.94664 0.863032 7.32213 2.91811 5.80087C4.61949 4.54138 10.073 0.237427 10.073 0.237427V7.42209H14.2203V17.7627H2.07518C1.36275 17.7627 0.779633 17.1844 0.779633 16.4778L0.779835 8.9307Z" fill="#3E9CDC" />
        <path fill-rule="evenodd" clip-rule="evenodd" d="M10.073 7.422V11.585L2.45212 16.7335L12.0874 13.6246V7.422H10.073Z" fill="black" fill-opacity="0.2" />
        <path fill-rule="evenodd" clip-rule="evenodd" d="M6.5904 7.20685C7.03609 6.68023 7.68696 6.49436 8.04435 6.79173C8.40174 7.08915 8.3303 7.75719 7.8846 8.2838C7.43925 8.81035 6.78811 8.99602 6.43072 8.69859C6.07333 8.40123 6.14497 7.73333 6.5904 7.20678V7.20685Z" fill="#231F20" />
    </symbol>
    <symbol id="webmoney" viewBox="0 0 19 18" fill="none">
        <path d="M9.34077 0C10.751 0 12.0928 0.323103 13.2969 0.901077C13.4857 0.986269 13.6758 1.08823 13.864 1.19028L13.0384 1.92159L11.8007 0.646297L9.66802 2.51651L8.41214 1.17307L4.49048 4.65889L7.00126 7.39646L6.02108 8.24641L8.49822 10.984L7.51795 11.8336L11.0613 15.7274L13.1585 13.823L14.9826 15.8639C14.6211 16.136 14.2255 16.4086 13.796 16.6462C12.4886 17.3773 10.9747 17.8016 9.35814 17.8016C4.38691 17.8016 0.345546 13.8066 0.345546 8.89314C0.327991 4.01286 4.37007 0 9.34077 0ZM7.68931 8.34864L9.83937 6.44418L11.7662 8.56952L9.61567 10.4738L7.68931 8.34864ZM9.22053 12.0214L11.3531 10.1001L13.2969 12.2253L11.1467 14.1298L9.22053 12.0214ZM6.15942 4.72713L8.30886 2.82267L10.2352 4.948L8.08507 6.85238L6.15942 4.72713ZM10.0974 3.70661L11.6971 2.27842L13.1423 3.85978L11.5426 5.30484L10.0974 3.70661ZM12.9529 10.2528L14.5521 8.82456L15.9972 10.4224L14.3974 11.8516L12.9529 10.2528ZM14.3631 13.4668L15.9629 12.0382L17.4068 13.6195L15.8076 15.0644L14.3631 13.4668ZM15.0168 6.12107L16.0831 5.16879L17.0459 6.22339L15.9799 7.17531L15.0168 6.12107ZM13.6408 2.97548L14.7071 2.00651L15.6707 3.07753L14.6036 4.02972L13.6408 2.97548ZM16.3755 9.26693L17.4417 8.31474L18.422 9.36899L17.3389 10.3209L16.3755 9.26693ZM11.5768 6.90341L13.1766 5.47513L14.6211 7.05614L13.022 8.48469L11.5768 6.90341Z" fill="#3E9CDC" />
    </symbol>
    <symbol id="vk" viewBox="0 0 12 14" fill="none">
        <path d="M11.1804 9.28625C11.1804 9.93665 11.0574 10.5079 10.8113 11.0001C10.5652 11.4923 10.2341 11.8995 9.81812 12.2218C9.32593 12.6085 8.78394 12.8839 8.19214 13.048C7.6062 13.212 6.85913 13.2941 5.95093 13.2941H0.712646V0.207153H5.33569C6.29663 0.207153 7.02319 0.245239 7.51538 0.321411C8.01343 0.391724 8.47925 0.544067 8.91284 0.778442C9.38159 1.0304 9.73022 1.36731 9.95874 1.78918C10.1931 2.21106 10.3103 2.69739 10.3103 3.24817C10.3103 3.88684 10.1492 4.4552 9.8269 4.95325C9.5105 5.45129 9.07104 5.8175 8.50854 6.05188V6.12219C9.31714 6.29211 9.9646 6.64075 10.4509 7.16809C10.9373 7.68958 11.1804 8.39563 11.1804 9.28625ZM6.97046 3.90735C6.97046 3.69641 6.91479 3.47961 6.80347 3.25696C6.698 3.0343 6.53101 2.87317 6.30249 2.77356C6.08569 2.67981 5.82788 2.63 5.52905 2.62415C5.23608 2.61243 4.79663 2.60657 4.21069 2.60657H3.98218V5.37512H4.39526C4.95776 5.37512 5.35034 5.36926 5.573 5.35754C5.80151 5.34583 6.03589 5.2843 6.27612 5.17297C6.53979 5.04993 6.72144 4.88 6.82104 4.66321C6.92065 4.44641 6.97046 4.19446 6.97046 3.90735ZM7.79663 9.22473C7.79663 8.82043 7.7146 8.50403 7.55054 8.27551C7.38647 8.047 7.14038 7.87415 6.81226 7.75696C6.61304 7.68079 6.33765 7.63977 5.98608 7.63391C5.64038 7.62219 5.17456 7.61633 4.58862 7.61633H3.98218V10.8947H4.15796C5.01343 10.8947 5.60522 10.8888 5.93335 10.8771C6.26147 10.8654 6.59546 10.7863 6.9353 10.6398C7.23413 10.5109 7.45093 10.3234 7.58569 10.0773C7.72632 9.82532 7.79663 9.54114 7.79663 9.22473Z" fill="#3E9CDC" />
    </symbol>
    <symbol id="document-btn" viewBox="0 0 18 21" fill="none">
        <path d="M16.8125 4.60899L13.3304 1.12685C12.9174 0.713902 12.0915 0.36792 11.5 0.36792H1.50002C0.9085 0.36792 0.428589 0.847831 0.428589 1.43935V19.2965C0.428589 19.888 0.9085 20.3679 1.50002 20.3679H16.5C17.0915 20.3679 17.5714 19.888 17.5714 19.2965V6.43935C17.5714 5.84783 17.2255 5.02194 16.8125 4.60899ZM11.8572 1.88578C12.0469 1.95274 12.2366 2.05319 12.3148 2.13131L15.8081 5.62462C15.8862 5.70274 15.9866 5.89247 16.0536 6.08221H11.8572V1.88578ZM16.1429 18.9394H1.85716V1.79649H10.4286V6.43935C10.4286 7.03087 10.9085 7.51078 11.5 7.51078H16.1429V18.9394ZM4.7143 9.29649V10.0108C4.7143 10.2117 4.87055 10.3679 5.07145 10.3679H12.9286C13.1295 10.3679 13.2857 10.2117 13.2857 10.0108V9.29649C13.2857 9.0956 13.1295 8.93935 12.9286 8.93935H5.07145C4.87055 8.93935 4.7143 9.0956 4.7143 9.29649ZM12.9286 11.7965H5.07145C4.87055 11.7965 4.7143 11.9527 4.7143 12.1536V12.8679C4.7143 13.0688 4.87055 13.2251 5.07145 13.2251H12.9286C13.1295 13.2251 13.2857 13.0688 13.2857 12.8679V12.1536C13.2857 11.9527 13.1295 11.7965 12.9286 11.7965ZM12.9286 14.6536H5.07145C4.87055 14.6536 4.7143 14.8099 4.7143 15.0108V15.7251C4.7143 15.926 4.87055 16.0822 5.07145 16.0822H12.9286C13.1295 16.0822 13.2857 15.926 13.2857 15.7251V15.0108C13.2857 14.8099 13.1295 14.6536 12.9286 14.6536Z" fill="#272733"/>
    </symbol>
</svg>